<svg width="768" height="7000" viewBox="0 0 768 7000" fill="none" xmlns="http://www.w3.org/2000/svg">
<path d="M430.421 0C525.008 0 516.478 138.703 587.887 216C649.038 282.193 731.918 312 761.476 370.5C844.072 533.967 5.16321 566 1.01572 730.5C-2.86084 884.255 711.495 842 711.495 1022C711.495 1213 493.3 1162 493.3 1346C493.3 1508.56 183.448 1541.1 197.714 1658.5C213.393 1787.52 519.631 1762.25 592.186 1916.5C661.567 2064 30.8998 2124.87 74.1059 2384C95.1885 2510.44 273.683 2587 262.206 2661C242.915 2785.37 28.0104 2753.04 5.85257 2877C-29.8068 3076.49 897.397 3093.98 720.094 3372.5C664.712 3459.5 306.812 3463.5 467.503 3624.5C632.493 3780 6.92743 3836.5 5.85257 4000C4.77772 4163.5 636.502 4176.15 728.156 4345C863.587 4594.5 5.85257 4787 11.2268 4941C17.9447 5133.5 783.072 5307.5 741.591 5515.5C700.111 5723.5 68.9755 5830 27.3497 6019C-20.7796 6237.53 611.534 6262.5 197.714 6534.5C-85.6357 6720.74 769 7000 769 7000" stroke="#2BB32A" stroke-width="1.5" stroke-linecap="square"/>
</svg>
