<svg width="482" height="8500" viewBox="0 0 482 8500" fill="none" xmlns="http://www.w3.org/2000/svg">
<path d="M185.5 0C185.5 0 168 115 292.5 165C417 215 473.607 260.5 480 306C490.679 382 298.901 402 282 487.5C256.895 614.5 14.4803 538.449 16 626C17.0246 685.026 202 717.5 202 787C202 847.423 16.4309 928.63 4.5 991C-15.1075 1093.5 465.045 1055.5 465.045 1154C465.045 1254.5 43.2391 1307 9.99997 1446C-13.9131 1546 338.5 1528.4 205.5 1669.5C22.3295 1863.82 403.52 1964.47 392 2091.5C380.48 2218.53 97.3927 2172.5 59.4999 2282.5C18.6791 2401 353.5 2787.5 371.5 2923C389.5 3058.5 107.931 3074 58.4999 3177C9.06859 3280 488.136 3363.5 358 3507C296.501 3574.81 173.492 3559 146.5 3663C113.538 3790 -7.08067 3819.5 2.99992 3910C16.1994 4028.5 426.5 4067 442 4180.5C457.5 4294 65.9846 4255.6 20.4999 4359.5C-27.0001 4468 500.754 4821.5 478.5 4954C451.711 5113.5 -45.6547 5104 15.4999 5313.5C59.8698 5465.5 494.686 5404.5 481.186 5532C467.686 5659.5 20 5802 4.49999 5981.5C-11 6161 406.926 6084.5 247.5 6326.5C88.0743 6568.5 469.61 6622 480.5 6726.5C491.39 6831 0.832408 6943 3 7064.5C4.3291 7139 217.5 7130.5 264 7275.5C310.5 7420.5 407.5 7387.5 431 7517.5C454.5 7647.5 130.488 7683 40 7871C-44.2147 8045.97 459.212 8073 480.5 8240.5C493.018 8339 163.5 8343.5 2 8500" stroke="#2BB32A" stroke-width="1.5" stroke-linecap="square"/>
</svg>
