<svg width="994" height="7000" viewBox="0 0 994 7000" fill="none" xmlns="http://www.w3.org/2000/svg">
<path d="M639.545 0C639.545 0 823.244 64.5 683.642 256C544.041 447.5 973.584 346 941.879 487C910.175 628 -230.447 583.475 43.4189 838C353.304 1126 1063.07 1055.5 987.391 1296.5C911.709 1537.5 -77.5959 1350.94 82.2825 1696.5C219.005 1992.01 1117.27 2192.64 799.496 2445.5C599.042 2605 -124.829 2798.82 141.673 3043C281.272 3170.9 602.792 3053 615.811 3227C631.561 3437.5 156.467 3436.5 101.191 3592C22.8099 3812.5 981.215 3688.5 991.782 3886.5C1003.71 4110 -57.1788 4025 35.9152 4268C110.046 4461.5 622.014 4410.5 586.968 4557C551.923 4703.5 154.619 4612.25 33.3851 4816C-182.199 5178.31 886.314 5141 960.409 5381C1032.65 5615 249.521 6077 582.928 6310C955.761 6570.55 101.115 6756.35 109.92 7000" stroke="#2BB32A" stroke-width="1.5" stroke-linecap="square"/>
</svg>
