<svg width="1440" height="7000" viewBox="0 0 1440 7000" fill="none" xmlns="http://www.w3.org/2000/svg">
<path d="M886.805 0.0743206C986.888 -1.4439 1187.91 19.063 1065.22 176.635C911.848 373.6 1260.94 302.803 1283 432C1301.12 538.082 1149.93 591.352 1211 698C1349 939 736.569 920.328 258.934 921.522C91.767 929.283 -164.804 1007.13 146.247 1256.43C535.061 1568.06 1238.55 1700.59 1195.7 1890.43C1152.86 2080.27 -384.754 2905.95 146.247 2905.95C1314.52 2905.95 250.102 3383.41 709.046 3545.41C849.007 3594.81 1440.94 3511.17 1410.12 3824.66C1352.7 4408.75 -60.5479 4131.44 95.6015 4451.98C290.788 4852.65 1440 4859 1440 5140C1440 5421 380.118 5510.45 430.5 5900C462.354 6146.29 1062.23 6156.35 1125.5 6396.5C1249.16 6865.88 101 7000 101 7000" stroke="#2BB32A" stroke-width="1.5" stroke-linecap="square"/>
</svg>
