<svg width="43" height="43" viewBox="0 0 43 43" fill="none" xmlns="http://www.w3.org/2000/svg">
<path d="M20.5494 0.888531C20.8509 -0.0282441 22.1478 -0.0282412 22.4493 0.888534L27.1575 15.2044C27.2568 15.5061 27.4934 15.7427 27.7951 15.8419L42.111 20.5502C43.0277 20.8517 43.0277 22.1486 42.1109 22.4501L27.7951 27.1583C27.4934 27.2575 27.2568 27.4941 27.1575 27.7958L22.4493 42.1117C22.1478 43.0285 20.8509 43.0285 20.5494 42.1117L15.8412 27.7958C15.742 27.4941 15.5053 27.2575 15.2037 27.1583L0.887768 22.4501C-0.0290071 22.1486 -0.0290041 20.8517 0.887771 20.5502L15.2037 15.8419C15.5053 15.7427 15.742 15.5061 15.8412 15.2044L20.5494 0.888531Z" fill="#2BB32A"/>
</svg>
