<svg width="32" height="32" viewBox="0 0 32 32" fill="none" xmlns="http://www.w3.org/2000/svg">
<path d="M14.5466 6.2419C15.3791 5.34445 15.7954 4.89572 16.1334 4.8402C16.2665 4.81834 16.329 4.81848 16.462 4.84093C16.7998 4.89795 17.2157 5.35029 18.0475 6.25496C18.8973 7.17925 19.9766 8.11427 21.0958 8.46512C21.9976 8.74779 23.219 8.74333 24.2027 8.67049C24.964 8.61412 25.3447 8.58593 25.6088 8.7357C25.6967 8.7855 25.7708 8.84336 25.8403 8.91654C26.0496 9.13661 26.1064 9.46635 26.22 10.1258C26.6253 12.4791 27.1135 16.8106 25.8861 19.6279C24.755 22.2238 21.6861 24.6387 19.3235 26.2012C18.2123 26.9361 17.6567 27.3035 16.7458 27.4251C16.5054 27.4572 16.0861 27.4654 15.8446 27.4429C14.9297 27.3574 14.3591 27.0117 13.2179 26.3202C10.6876 24.787 7.33454 22.3501 6.12637 19.6279C4.88134 16.8227 5.37378 12.4974 5.78517 10.1391C5.90123 9.47377 5.95927 9.14111 6.17238 8.92045C6.24293 8.84741 6.31889 8.78919 6.40776 8.74005C6.67622 8.5916 7.05775 8.62611 7.82081 8.69512C8.96118 8.79825 10.446 8.827 11.5154 8.46512C12.6217 8.09072 13.6964 7.15837 14.5466 6.2419Z" fill="white" stroke="white" stroke-width="1.5" stroke-linejoin="round"/>
</svg>
