<svg width="32" height="32" viewBox="0 0 32 32" fill="none" xmlns="http://www.w3.org/2000/svg">
<path d="M27.75 16C27.8881 16 28.0003 16.1119 27.9974 16.25C27.9531 18.3762 27.3444 20.4541 26.2317 22.2699C25.0754 24.1569 23.4198 25.6873 21.4479 26.692C19.476 27.6967 17.2647 28.1366 15.0585 27.963C12.8523 27.7893 10.737 27.009 8.94658 25.7082C7.15617 24.4074 5.76036 22.6368 4.91345 20.5922C4.06655 18.5476 3.80154 16.3086 4.14774 14.1227C4.49394 11.9369 5.43786 9.88941 6.87513 8.20658C8.25824 6.58717 10.0464 5.36618 12.0548 4.66701C12.1852 4.62162 12.3264 4.69373 12.3691 4.82504L15.4948 14.4452C15.7961 15.3723 16.66 16 17.6347 16H27.75Z" fill="white" stroke="white" stroke-width="1.5"/>
<path d="M17.1445 4.59672C17.1018 4.46541 17.1736 4.32394 17.3062 4.28577C18.3363 3.98949 19.4199 3.92234 20.4805 4.09033C21.6235 4.27136 22.7075 4.72035 23.6437 5.40058C24.58 6.08081 25.342 6.97297 25.8674 8.00411C26.3549 8.96092 26.6259 10.0122 26.6624 11.0834C26.6671 11.2214 26.5547 11.3334 26.4167 11.3334L20.2415 11.3334C19.7 11.3334 19.22 10.9847 19.0527 10.4696L17.1445 4.59672Z" fill="white" stroke="white" stroke-width="1.5"/>
</svg>
