<svg width="46" height="36" viewBox="0 0 46 36" fill="white" xmlns="http://www.w3.org/2000/svg">
<path d="M0.654329 2.00746C0.631254 1.34669 1.14853 0.811035 1.8097 0.811035H11.9855C12.6467 0.811035 13.2014 1.34669 13.2244 2.00746L13.4905 9.627C13.5066 10.0885 13.2558 10.5088 12.8458 10.7072L7.84244 13.1285C7.52224 13.2835 7.14407 13.2835 6.81305 13.1285L1.64059 10.7072C1.21676 10.5088 0.936524 10.0885 0.920409 9.627L0.654329 2.00746Z" />
<path d="M19.8088 2.00746C19.7857 1.34669 20.303 0.811035 20.9642 0.811035H23.9571C24.6182 0.811035 25.1729 1.34669 25.196 2.00746L25.2796 4.40031C25.3026 5.06107 24.7853 5.59673 24.1242 5.59673H21.1313C20.4701 5.59673 19.9154 5.06107 19.8924 4.40031L19.8088 2.00746Z" />
<path d="M31.7803 2.00746C31.7573 1.34669 32.2745 0.811035 32.9357 0.811035H43.1115C43.7727 0.811035 44.3274 1.34669 44.3505 2.00746L44.6011 9.186C44.6242 9.84677 44.1069 10.3824 43.4458 10.3824H33.27C32.6088 10.3824 32.0541 9.84677 32.031 9.186L31.7803 2.00746Z" />
<path d="M1.09302 14.5699C1.06994 13.9091 1.58722 13.3735 2.24839 13.3735H12.4242C13.0854 13.3735 13.6401 13.9091 13.6631 14.5699L13.9138 21.7485C13.9369 22.4092 13.4196 22.9449 12.7584 22.9449H2.58263C1.92146 22.9449 1.36677 22.4092 1.3437 21.7485L1.09302 14.5699Z" />
<path d="M16.4889 9.78421C16.4658 9.12345 16.9831 8.58779 17.6443 8.58779H27.8201C28.4813 8.58779 29.036 9.12345 29.059 9.78421L29.6439 26.5342C29.667 27.1949 29.1497 27.7306 28.4886 27.7306H18.3128C17.6516 27.7306 17.0969 27.1949 17.0738 26.5342L16.4889 9.78421Z" />
<path d="M32.219 14.5699C32.196 13.9091 32.7132 13.3735 33.3744 13.3735H43.5502C44.2114 13.3735 44.7661 13.9091 44.7892 14.5699L45.0398 21.7485C45.0629 22.4092 44.5456 22.9449 43.8845 22.9449H33.7086C33.0475 22.9449 32.4928 22.4092 32.4697 21.7485L32.219 14.5699Z" />
<path d="M1.53171 27.1324C1.50864 26.4716 2.02591 25.9359 2.68708 25.9359H12.8629C13.5241 25.9359 14.0788 26.4716 14.1018 27.1324L14.3525 34.3109C14.3756 34.9717 13.8583 35.5073 13.1971 35.5073H3.02132C2.36015 35.5073 1.80546 34.9717 1.78239 34.3109L1.53171 27.1324Z" />
<path d="M20.8533 31.9181C20.8302 31.2573 21.3475 30.7216 22.0087 30.7216H25.0016C25.6627 30.7216 26.2174 31.2573 26.2405 31.9181L26.3241 34.3109C26.3471 34.9717 25.8298 35.5073 25.1687 35.5073H22.1758C21.5146 35.5073 20.9599 34.9717 20.9369 34.3109L20.8533 31.9181Z" />
<path d="M32.6423 26.6914C32.6262 26.2299 32.8771 25.8096 33.2871 25.6112L38.2904 23.1898C38.6106 23.0349 38.9888 23.0349 39.3198 23.1898L44.4923 25.6112C44.9161 25.8096 45.1963 26.2299 45.2124 26.6914L45.4785 34.3109C45.5016 34.9717 44.9843 35.5073 44.3231 35.5073H34.1473C33.4862 35.5073 32.9315 34.9717 32.9084 34.3109L32.6423 26.6914Z" />
</svg>
