<svg width="45" height="27" viewBox="0 0 45 27" fill="none" xmlns="http://www.w3.org/2000/svg">
<path fill-rule="evenodd" clip-rule="evenodd" d="M22.6737 23.1753C25.1798 20.797 26.6835 17.3851 26.5511 13.5934C26.4187 9.80172 24.6767 6.38974 22.0044 4.01144C24.2478 1.88279 27.2956 0.582275 30.6917 0.582275C37.8818 0.582275 43.9142 6.40768 44.1651 13.5934C44.416 20.7791 38.7905 26.6045 31.6004 26.6045C28.2043 26.6045 25.0657 25.304 22.6737 23.1753ZM22.6737 23.1753C20.4303 25.304 17.3825 26.6045 13.9864 26.6045C6.79631 26.6045 0.763928 20.7791 0.512998 13.5934C0.262067 6.40768 5.8876 0.582275 13.0777 0.582275C16.4738 0.582275 19.6124 1.88279 22.0044 4.01144C19.4983 6.38974 17.9946 9.80172 18.127 13.5934C18.2594 17.3851 20.0015 20.797 22.6737 23.1753Z" fill="white"/>
</svg>
