<svg width="27" height="36" viewBox="0 0 27 36" fill="none" xmlns="http://www.w3.org/2000/svg">
<path fill-rule="evenodd" clip-rule="evenodd" d="M17.6497 0.834378C18.2423 0.400281 19.0921 0.540775 19.5476 1.14818C21.9734 4.38238 24.9247 9.89847 25.9479 16.0426C26.978 22.2287 26.0574 29.1346 20.5877 34.8763C20.0815 35.4077 19.2253 35.4133 18.6753 34.8889C18.1253 34.3645 18.0897 33.5086 18.5959 32.9772C23.3664 27.9695 24.2067 21.9717 23.278 16.3952C22.3424 10.7767 19.615 5.67122 17.4016 2.72018C16.946 2.11278 17.0571 1.26847 17.6497 0.834378ZM11.9598 5.79214C12.5518 5.35715 13.4017 5.49639 13.8581 6.10315C15.5702 8.37902 17.6481 12.2499 18.3697 16.5724C19.0984 20.9375 18.4475 25.845 14.5518 29.9212C14.0447 30.4518 13.1885 30.4561 12.6393 29.9308C12.09 29.4056 12.0559 28.5497 12.5629 28.0191C15.7574 24.6766 16.3265 20.6788 15.7 16.9261C15.0664 13.1307 13.2137 9.67122 11.7145 7.67841C11.2581 7.07165 11.3679 6.22714 11.9598 5.79214ZM7.63484 11.2031C8.2246 10.7652 9.075 10.9004 9.53426 11.5051C10.4687 12.7354 11.5954 14.8122 11.9886 17.1492C12.3894 19.5308 12.031 22.26 9.84961 24.5188C9.33981 25.0468 8.48338 25.0468 7.93671 24.5188C7.39004 23.9909 7.36015 23.135 7.86995 22.6071C9.34377 21.0809 9.61574 19.2666 9.31954 17.5064C9.01585 15.7016 8.11824 14.0384 7.39854 13.0908C6.93928 12.4861 7.04508 11.641 7.63484 11.2031ZM4.115 16.804C3.61698 16.804 3.22734 17.2075 3.24472 17.7052C3.2621 18.2029 3.67992 18.6064 4.17794 18.6064C4.67597 18.6064 5.0656 18.2029 5.04822 17.7052C5.03084 17.2075 4.61303 16.804 4.115 16.804ZM0.539473 17.7052C0.46995 15.7143 2.0285 14.1004 4.02059 14.1004C6.01268 14.1004 7.68395 15.7143 7.75347 17.7052C7.823 19.6961 6.26445 21.31 4.27236 21.31C2.28026 21.31 0.608996 19.6961 0.539473 17.7052Z" fill="white"/>
</svg>
